<?xml version="1.0" encoding="us-ascii" standalone="no"?><svg xmlns="http://www.w3.org/2000/svg" xmlns:xlink="http://www.w3.org/1999/xlink" contentStyleType="text/css" height="793px" preserveAspectRatio="none" style="width:1611px;height:793px;background:#FFFFFF;" version="1.1" viewBox="0 0 1611 793" width="1611px" zoomAndPan="magnify"><defs/><g><text fill="#000000" font-family="sans-serif" font-size="14" font-weight="bold" lengthAdjust="spacing" textLength="848" x="374.5" y="23.5352">Packaging and Deployment Strategy - Camel Outbound File Adapter (Descriptor Correctly Mounted INSIDE Each POD)</text><!--cluster Packaging Layer--><g id="cluster_Packaging Layer"><path d="M573.5,43.4883 L690.5,43.4883 A3.75,3.75 0 0 1 693,45.9883 L700,65.9766 L1360.5,65.9766 A2.5,2.5 0 0 1 1363,68.4766 L1363,138.4783 A2.5,2.5 0 0 1 1360.5,140.9783 L573.5,140.9783 A2.5,2.5 0 0 1 571,138.4783 L571,45.9883 A2.5,2.5 0 0 1 573.5,43.4883 " fill="none" style="stroke:#000000;stroke-width:1.5;"/><line style="stroke:#000000;stroke-width:1.5;" x1="571" x2="700" y1="65.9766" y2="65.9766"/><text fill="#000000" font-family="sans-serif" font-size="14" font-weight="bold" lengthAdjust="spacing" textLength="116" x="575" y="59.0234">Packaging Layer</text></g><!--cluster Deployment Layer--><g id="cluster_Deployment Layer"><path d="M331.5,189.9783 L462.5,189.9783 A3.75,3.75 0 0 1 465,192.4783 L472,212.4666 L1601.5,212.4666 A2.5,2.5 0 0 1 1604,214.9666 L1604,284.9683 A2.5,2.5 0 0 1 1601.5,287.4683 L331.5,287.4683 A2.5,2.5 0 0 1 329,284.9683 L329,192.4783 A2.5,2.5 0 0 1 331.5,189.9783 " fill="none" style="stroke:#000000;stroke-width:1.5;"/><line style="stroke:#000000;stroke-width:1.5;" x1="329" x2="472" y1="212.4666" y2="212.4666"/><text fill="#000000" font-family="sans-serif" font-size="14" font-weight="bold" lengthAdjust="spacing" textLength="130" x="333" y="205.5134">Deployment Layer</text></g><!--cluster Kubernetes Cluster--><g id="cluster_Kubernetes Cluster"><path d="M8.5,320.4683 L147.5,320.4683 A3.75,3.75 0 0 1 150,322.9683 L157,342.9566 L1450.5,342.9566 A2.5,2.5 0 0 1 1453,345.4566 L1453,784.4283 A2.5,2.5 0 0 1 1450.5,786.9283 L8.5,786.9283 A2.5,2.5 0 0 1 6,784.4283 L6,322.9683 A2.5,2.5 0 0 1 8.5,320.4683 " fill="none" style="stroke:#000000;stroke-width:1.5;"/><line style="stroke:#000000;stroke-width:1.5;" x1="6" x2="157" y1="342.9566" y2="342.9566"/><text fill="#000000" font-family="sans-serif" font-size="14" font-weight="bold" lengthAdjust="spacing" textLength="138" x="10" y="336.0034">Kubernetes Cluster</text></g><!--cluster Scheduler PODs (one per file)--><g id="cluster_Scheduler PODs (one per file)"><polygon fill="none" points="38,381.4683,48,371.4683,326,371.4683,326,603.4383,316,613.4383,38,613.4383,38,381.4683" style="stroke:#181818;stroke-width:1.0;"/><line style="stroke:#181818;stroke-width:1.0;" x1="316" x2="326" y1="381.4683" y2="371.4683"/><line style="stroke:#181818;stroke-width:1.0;" x1="38" x2="316" y1="381.4683" y2="381.4683"/><line style="stroke:#181818;stroke-width:1.0;" x1="316" x2="316" y1="381.4683" y2="613.4383"/><text fill="#000000" font-family="sans-serif" font-size="14" font-weight="bold" lengthAdjust="spacing" textLength="212" x="72" y="398.0034">Scheduler PODs (one per file)</text></g><!--cluster Processor PODs (one per file)--><g id="cluster_Processor PODs (one per file)"><polygon fill="none" points="366,381.4683,376,371.4683,1030,371.4683,1030,744.9283,1020,754.9283,366,754.9283,366,381.4683" style="stroke:#181818;stroke-width:1.0;"/><line style="stroke:#181818;stroke-width:1.0;" x1="1020" x2="1030" y1="381.4683" y2="371.4683"/><line style="stroke:#181818;stroke-width:1.0;" x1="366" x2="1020" y1="381.4683" y2="381.4683"/><line style="stroke:#181818;stroke-width:1.0;" x1="1020" x2="1020" y1="381.4683" y2="754.9283"/><text fill="#000000" font-family="sans-serif" font-size="14" font-weight="bold" lengthAdjust="spacing" textLength="213" x="587.5" y="398.0034">Processor PODs (one per file)</text></g><!--cluster CronJob Scheduler PODs (one per file)--><g id="cluster_CronJob Scheduler PODs (one per file)"><polygon fill="none" points="1070,381.4683,1080,371.4683,1421,371.4683,1421,744.9283,1411,754.9283,1070,754.9283,1070,381.4683" style="stroke:#181818;stroke-width:1.0;"/><line style="stroke:#181818;stroke-width:1.0;" x1="1411" x2="1421" y1="381.4683" y2="371.4683"/><line style="stroke:#181818;stroke-width:1.0;" x1="1070" x2="1411" y1="381.4683" y2="381.4683"/><line style="stroke:#181818;stroke-width:1.0;" x1="1411" x2="1411" y1="381.4683" y2="754.9283"/><text fill="#000000" font-family="sans-serif" font-size="14" font-weight="bold" lengthAdjust="spacing" textLength="275" x="1104" y="398.0034">CronJob Scheduler PODs (one per file)</text></g><!--entity Docker Image: Scheduler--><g id="elem_Docker Image: Scheduler"><rect fill="#F1F1F1" height="46.4883" rx="2.5" ry="2.5" style="stroke:#181818;stroke-width:0.5;" width="210" x="587" y="78.4883"/><rect fill="#F1F1F1" height="10" style="stroke:#181818;stroke-width:0.5;" width="15" x="777" y="83.4883"/><rect fill="#F1F1F1" height="2" style="stroke:#181818;stroke-width:0.5;" width="4" x="775" y="85.4883"/><rect fill="#F1F1F1" height="2" style="stroke:#181818;stroke-width:0.5;" width="4" x="775" y="89.4883"/><text fill="#000000" font-family="sans-serif" font-size="14" lengthAdjust="spacing" textLength="170" x="602" y="112.0234">Docker Image: Scheduler</text></g><!--entity Docker Image: Processor--><g id="elem_Docker Image: Processor"><rect fill="#F1F1F1" height="46.4883" rx="2.5" ry="2.5" style="stroke:#181818;stroke-width:0.5;" width="209" x="832.5" y="78.4883"/><rect fill="#F1F1F1" height="10" style="stroke:#181818;stroke-width:0.5;" width="15" x="1021.5" y="83.4883"/><rect fill="#F1F1F1" height="2" style="stroke:#181818;stroke-width:0.5;" width="4" x="1019.5" y="85.4883"/><rect fill="#F1F1F1" height="2" style="stroke:#181818;stroke-width:0.5;" width="4" x="1019.5" y="89.4883"/><text fill="#000000" font-family="sans-serif" font-size="14" lengthAdjust="spacing" textLength="169" x="847.5" y="112.0234">Docker Image: Processor</text></g><!--entity Docker Image: CronJob Scheduler--><g id="elem_Docker Image: CronJob Scheduler"><rect fill="#F1F1F1" height="46.4883" rx="2.5" ry="2.5" style="stroke:#181818;stroke-width:0.5;" width="270" x="1077" y="78.4883"/><rect fill="#F1F1F1" height="10" style="stroke:#181818;stroke-width:0.5;" width="15" x="1327" y="83.4883"/><rect fill="#F1F1F1" height="2" style="stroke:#181818;stroke-width:0.5;" width="4" x="1325" y="85.4883"/><rect fill="#F1F1F1" height="2" style="stroke:#181818;stroke-width:0.5;" width="4" x="1325" y="89.4883"/><text fill="#000000" font-family="sans-serif" font-size="14" lengthAdjust="spacing" textLength="230" x="1092" y="112.0234">Docker Image: CronJob Scheduler</text></g><!--entity Helm Chart: Scheduler Deployment (one per file)--><g id="elem_Helm Chart: Scheduler Deployment (one per file)"><rect fill="#F1F1F1" height="46.4883" rx="2.5" ry="2.5" style="stroke:#181818;stroke-width:0.5;" width="371" x="345.5" y="224.9783"/><rect fill="#F1F1F1" height="10" style="stroke:#181818;stroke-width:0.5;" width="15" x="696.5" y="229.9783"/><rect fill="#F1F1F1" height="2" style="stroke:#181818;stroke-width:0.5;" width="4" x="694.5" y="231.9783"/><rect fill="#F1F1F1" height="2" style="stroke:#181818;stroke-width:0.5;" width="4" x="694.5" y="235.9783"/><text fill="#000000" font-family="sans-serif" font-size="14" lengthAdjust="spacing" textLength="331" x="360.5" y="258.5134">Helm Chart: Scheduler Deployment (one per file)</text></g><!--entity Helm Chart: Processor Deployment (one per file)--><g id="elem_Helm Chart: Processor Deployment (one per file)"><rect fill="#F1F1F1" height="46.4883" rx="2.5" ry="2.5" style="stroke:#181818;stroke-width:0.5;" width="370" x="752" y="224.9783"/><rect fill="#F1F1F1" height="10" style="stroke:#181818;stroke-width:0.5;" width="15" x="1102" y="229.9783"/><rect fill="#F1F1F1" height="2" style="stroke:#181818;stroke-width:0.5;" width="4" x="1100" y="231.9783"/><rect fill="#F1F1F1" height="2" style="stroke:#181818;stroke-width:0.5;" width="4" x="1100" y="235.9783"/><text fill="#000000" font-family="sans-serif" font-size="14" lengthAdjust="spacing" textLength="330" x="767" y="258.5134">Helm Chart: Processor Deployment (one per file)</text></g><!--entity Helm Chart: CronJob Scheduler Deployment (one per file)--><g id="elem_Helm Chart: CronJob Scheduler Deployment (one per file)"><rect fill="#F1F1F1" height="46.4883" rx="2.5" ry="2.5" style="stroke:#181818;stroke-width:0.5;" width="431" x="1157.5" y="224.9783"/><rect fill="#F1F1F1" height="10" style="stroke:#181818;stroke-width:0.5;" width="15" x="1568.5" y="229.9783"/><rect fill="#F1F1F1" height="2" style="stroke:#181818;stroke-width:0.5;" width="4" x="1566.5" y="231.9783"/><rect fill="#F1F1F1" height="2" style="stroke:#181818;stroke-width:0.5;" width="4" x="1566.5" y="235.9783"/><text fill="#000000" font-family="sans-serif" font-size="14" lengthAdjust="spacing" textLength="391" x="1172.5" y="258.5134">Helm Chart: CronJob Scheduler Deployment (one per file)</text></g><!--entity descriptor-scheduler.json--><g id="elem_descriptor-scheduler.json"><rect fill="#ADD8E6" height="46.4883" rx="2.5" ry="2.5" style="stroke:#181818;stroke-width:0.5;" width="218" x="64" y="419.4683"/><rect fill="#ADD8E6" height="10" style="stroke:#181818;stroke-width:0.5;" width="15" x="262" y="424.4683"/><rect fill="#ADD8E6" height="2" style="stroke:#181818;stroke-width:0.5;" width="4" x="260" y="426.4683"/><rect fill="#ADD8E6" height="2" style="stroke:#181818;stroke-width:0.5;" width="4" x="260" y="430.4683"/><text fill="#000000" font-family="sans-serif" font-size="14" lengthAdjust="spacing" textLength="178" x="79" y="453.0034">descriptor-scheduler.json</text></g><!--entity Scheduler Container--><g id="elem_Scheduler Container"><rect fill="#F1F1F1" height="46.4883" rx="2.5" ry="2.5" style="stroke:#181818;stroke-width:0.5;" width="180" x="64" y="542.9483"/><rect fill="#F1F1F1" height="10" style="stroke:#181818;stroke-width:0.5;" width="15" x="224" y="547.9483"/><rect fill="#F1F1F1" height="2" style="stroke:#181818;stroke-width:0.5;" width="4" x="222" y="549.9483"/><rect fill="#F1F1F1" height="2" style="stroke:#181818;stroke-width:0.5;" width="4" x="222" y="553.9483"/><text fill="#000000" font-family="sans-serif" font-size="14" lengthAdjust="spacing" textLength="140" x="79" y="576.4834">Scheduler Container</text></g><!--entity descriptor-processor.json--><g id="elem_descriptor-processor.json"><rect fill="#ADD8E6" height="46.4883" rx="2.5" ry="2.5" style="stroke:#181818;stroke-width:0.5;" width="219" x="589.5" y="419.4683"/><rect fill="#ADD8E6" height="10" style="stroke:#181818;stroke-width:0.5;" width="15" x="788.5" y="424.4683"/><rect fill="#ADD8E6" height="2" style="stroke:#181818;stroke-width:0.5;" width="4" x="786.5" y="426.4683"/><rect fill="#ADD8E6" height="2" style="stroke:#181818;stroke-width:0.5;" width="4" x="786.5" y="430.4683"/><text fill="#000000" font-family="sans-serif" font-size="14" lengthAdjust="spacing" textLength="179" x="604.5" y="453.0034">descriptor-processor.json</text></g><!--entity Processor Container--><g id="elem_Processor Container"><rect fill="#F1F1F1" height="46.4883" rx="2.5" ry="2.5" style="stroke:#181818;stroke-width:0.5;" width="179" x="609.5" y="542.9483"/><rect fill="#F1F1F1" height="10" style="stroke:#181818;stroke-width:0.5;" width="15" x="768.5" y="547.9483"/><rect fill="#F1F1F1" height="2" style="stroke:#181818;stroke-width:0.5;" width="4" x="766.5" y="549.9483"/><rect fill="#F1F1F1" height="2" style="stroke:#181818;stroke-width:0.5;" width="4" x="766.5" y="553.9483"/><text fill="#000000" font-family="sans-serif" font-size="14" lengthAdjust="spacing" textLength="139" x="624.5" y="576.4834">Processor Container</text></g><!--entity EFS Mount /working--><g id="elem_EFS Mount /working"><rect fill="#F1F1F1" height="46.4883" rx="2.5" ry="2.5" style="stroke:#181818;stroke-width:0.5;" width="179" x="389.5" y="684.4383"/><rect fill="#F1F1F1" height="10" style="stroke:#181818;stroke-width:0.5;" width="15" x="548.5" y="689.4383"/><rect fill="#F1F1F1" height="2" style="stroke:#181818;stroke-width:0.5;" width="4" x="546.5" y="691.4383"/><rect fill="#F1F1F1" height="2" style="stroke:#181818;stroke-width:0.5;" width="4" x="546.5" y="695.4383"/><text fill="#000000" font-family="sans-serif" font-size="14" lengthAdjust="spacing" textLength="139" x="404.5" y="717.9734">EFS Mount /working</text></g><!--entity EFS Mount /output--><g id="elem_EFS Mount /output"><rect fill="#F1F1F1" height="46.4883" rx="2.5" ry="2.5" style="stroke:#181818;stroke-width:0.5;" width="169" x="829.5" y="684.4383"/><rect fill="#F1F1F1" height="10" style="stroke:#181818;stroke-width:0.5;" width="15" x="978.5" y="689.4383"/><rect fill="#F1F1F1" height="2" style="stroke:#181818;stroke-width:0.5;" width="4" x="976.5" y="691.4383"/><rect fill="#F1F1F1" height="2" style="stroke:#181818;stroke-width:0.5;" width="4" x="976.5" y="695.4383"/><text fill="#000000" font-family="sans-serif" font-size="14" lengthAdjust="spacing" textLength="129" x="844.5" y="717.9734">EFS Mount /output</text></g><!--entity EFS Mount /exception--><g id="elem_EFS Mount /exception"><rect fill="#F1F1F1" height="46.4883" rx="2.5" ry="2.5" style="stroke:#181818;stroke-width:0.5;" width="191" x="603.5" y="684.4383"/><rect fill="#F1F1F1" height="10" style="stroke:#181818;stroke-width:0.5;" width="15" x="774.5" y="689.4383"/><rect fill="#F1F1F1" height="2" style="stroke:#181818;stroke-width:0.5;" width="4" x="772.5" y="691.4383"/><rect fill="#F1F1F1" height="2" style="stroke:#181818;stroke-width:0.5;" width="4" x="772.5" y="695.4383"/><text fill="#000000" font-family="sans-serif" font-size="14" lengthAdjust="spacing" textLength="151" x="618.5" y="717.9734">EFS Mount /exception</text></g><!--entity descriptor-cronjob.json--><g id="elem_descriptor-cronjob.json"><rect fill="#ADD8E6" height="46.4883" rx="2.5" ry="2.5" style="stroke:#181818;stroke-width:0.5;" width="204" x="1094" y="419.4683"/><rect fill="#ADD8E6" height="10" style="stroke:#181818;stroke-width:0.5;" width="15" x="1278" y="424.4683"/><rect fill="#ADD8E6" height="2" style="stroke:#181818;stroke-width:0.5;" width="4" x="1276" y="426.4683"/><rect fill="#ADD8E6" height="2" style="stroke:#181818;stroke-width:0.5;" width="4" x="1276" y="430.4683"/><text fill="#000000" font-family="sans-serif" font-size="14" lengthAdjust="spacing" textLength="164" x="1109" y="453.0034">descriptor-cronjob.json</text></g><!--entity CronJob Container--><g id="elem_CronJob Container"><rect fill="#F1F1F1" height="46.4883" rx="2.5" ry="2.5" style="stroke:#181818;stroke-width:0.5;" width="168" x="1094" y="542.9483"/><rect fill="#F1F1F1" height="10" style="stroke:#181818;stroke-width:0.5;" width="15" x="1242" y="547.9483"/><rect fill="#F1F1F1" height="2" style="stroke:#181818;stroke-width:0.5;" width="4" x="1240" y="549.9483"/><rect fill="#F1F1F1" height="2" style="stroke:#181818;stroke-width:0.5;" width="4" x="1240" y="553.9483"/><text fill="#000000" font-family="sans-serif" font-size="14" lengthAdjust="spacing" textLength="128" x="1109" y="576.4834">CronJob Container</text></g><!--entity S3 Bucket--><g id="elem_S3 Bucket"><rect fill="#F1F1F1" height="46.4883" rx="2.5" ry="2.5" style="stroke:#181818;stroke-width:0.5;" width="106" x="1110" y="684.4383"/><rect fill="#F1F1F1" height="10" style="stroke:#181818;stroke-width:0.5;" width="15" x="1196" y="689.4383"/><rect fill="#F1F1F1" height="2" style="stroke:#181818;stroke-width:0.5;" width="4" x="1194" y="691.4383"/><rect fill="#F1F1F1" height="2" style="stroke:#181818;stroke-width:0.5;" width="4" x="1194" y="695.4383"/><text fill="#000000" font-family="sans-serif" font-size="14" lengthAdjust="spacing" textLength="66" x="1125" y="717.9734">S3 Bucket</text></g><!--link Docker Image: Scheduler to Helm Chart: Scheduler Deployment (one per file)--><g id="link_Docker Image: Scheduler_Helm Chart: Scheduler Deployment (one per file)"><path d="M666.84,125.3083 C636.69,152.3683 590.9049,193.4502 560.7049,220.5602 " fill="none" id="Docker Image: Scheduler-to-Helm Chart: Scheduler Deployment (one per file)" style="stroke:#181818;stroke-width:1.0;"/><polygon fill="#181818" points="556.24,224.5683,565.6094,221.5328,559.9608,221.2282,560.2653,215.5796,556.24,224.5683" style="stroke:#181818;stroke-width:1.0;"/><text fill="#000000" font-family="sans-serif" font-size="13" lengthAdjust="spacing" textLength="163" x="631.66" y="170.5466">Referenced in values.yaml</text></g><!--link Docker Image: Processor to Helm Chart: Processor Deployment (one per file)--><g id="link_Docker Image: Processor_Helm Chart: Processor Deployment (one per file)"><path d="M937,125.3083 C937,152.4483 937,191.7283 937,218.7983 " fill="none" id="Docker Image: Processor-to-Helm Chart: Processor Deployment (one per file)" style="stroke:#181818;stroke-width:1.0;"/><polygon fill="#181818" points="937,224.7983,941,215.7983,937,219.7983,933,215.7983,937,224.7983" style="stroke:#181818;stroke-width:1.0;"/><text fill="#000000" font-family="sans-serif" font-size="13" lengthAdjust="spacing" textLength="163" x="938" y="170.5466">Referenced in values.yaml</text></g><!--link Docker Image: CronJob Scheduler to Helm Chart: CronJob Scheduler Deployment (one per file)--><g id="link_Docker Image: CronJob Scheduler_Helm Chart: CronJob Scheduler Deployment (one per file)"><path d="M1237.16,125.3083 C1267.31,152.3683 1313.0951,193.4502 1343.2951,220.5602 " fill="none" id="Docker Image: CronJob Scheduler-to-Helm Chart: CronJob Scheduler Deployment (one per file)" style="stroke:#181818;stroke-width:1.0;"/><polygon fill="#181818" points="1347.76,224.5683,1343.7347,215.5796,1344.0392,221.2282,1338.3906,221.5328,1347.76,224.5683" style="stroke:#181818;stroke-width:1.0;"/><text fill="#000000" font-family="sans-serif" font-size="13" lengthAdjust="spacing" textLength="163" x="1288.67" y="170.5466">Referenced in values.yaml</text></g><!--link descriptor-scheduler.json to Scheduler Container--><g id="link_descriptor-scheduler.json_Scheduler Container"><path d="M169.47,466.2783 C166.06,488.0983 161.8481,515.0405 158.4381,536.8205 " fill="none" id="descriptor-scheduler.json-to-Scheduler Container" style="stroke:#181818;stroke-width:1.0;"/><polygon fill="#181818" points="157.51,542.7483,162.854,534.4753,158.2834,537.8085,154.9503,533.2379,157.51,542.7483" style="stroke:#181818;stroke-width:1.0;"/><text fill="#000000" font-family="sans-serif" font-size="13" lengthAdjust="spacing" textLength="134" x="165.64" y="509.5166">Mount via ConfigMap</text></g><!--link descriptor-processor.json to Processor Container--><g id="link_descriptor-processor.json_Processor Container"><path d="M699,466.2783 C699,488.0983 699,514.9683 699,536.7483 " fill="none" id="descriptor-processor.json-to-Processor Container" style="stroke:#181818;stroke-width:1.0;"/><polygon fill="#181818" points="699,542.7483,703,533.7483,699,537.7483,695,533.7483,699,542.7483" style="stroke:#181818;stroke-width:1.0;"/><text fill="#000000" font-family="sans-serif" font-size="13" lengthAdjust="spacing" textLength="134" x="700" y="509.5166">Mount via ConfigMap</text></g><!--link Processor Container to EFS Mount /working--><g id="link_Processor Container_EFS Mount /working"><path d="M651,589.8283 C625.15,602.6883 593.1,619.7183 566,637.4383 C544.35,651.5983 526.1129,666.0357 509.2729,680.2657 " fill="none" id="Processor Container-to-EFS Mount /working" style="stroke:#181818;stroke-width:1.0;"/><polygon fill="#181818" points="504.69,684.1383,514.1461,681.3846,508.5091,680.9111,508.9826,675.2741,504.69,684.1383" style="stroke:#181818;stroke-width:1.0;"/><text fill="#000000" font-family="sans-serif" font-size="13" lengthAdjust="spacing" textLength="123" x="567" y="651.0066">Write CSV/Pos rows</text></g><!--link Processor Container to EFS Mount /output--><g id="link_Processor Container_EFS Mount /output"><path d="M734.02,589.9183 C774,615.8583 833.9864,654.7728 873.9564,680.7028 " fill="none" id="Processor Container-to-EFS Mount /output" style="stroke:#181818;stroke-width:1.0;"/><polygon fill="#181818" points="878.99,683.9683,873.6166,675.7144,874.7954,681.2471,869.2627,682.4258,878.99,683.9683" style="stroke:#181818;stroke-width:1.0;"/><text fill="#000000" font-family="sans-serif" font-size="13" lengthAdjust="spacing" textLength="101" x="833.08" y="651.0066">Finalize batches</text></g><!--link Processor Container to EFS Mount /exception--><g id="link_Processor Container_EFS Mount /exception"><path d="M699,589.9183 C699,615.8583 699,652.0383 699,677.9683 " fill="none" id="Processor Container-to-EFS Mount /exception" style="stroke:#181818;stroke-width:1.0;"/><polygon fill="#181818" points="699,683.9683,703,674.9683,699,678.9683,695,674.9683,699,683.9683" style="stroke:#181818;stroke-width:1.0;"/><text fill="#000000" font-family="sans-serif" font-size="13" lengthAdjust="spacing" textLength="69" x="700" y="651.0066">Save errors</text></g><!--link descriptor-cronjob.json to CronJob Container--><g id="link_descriptor-cronjob.json_CronJob Container"><path d="M1192.66,466.2783 C1189.42,488.0983 1185.4275,515.0328 1182.2075,536.8128 " fill="none" id="descriptor-cronjob.json-to-CronJob Container" style="stroke:#181818;stroke-width:1.0;"/><polygon fill="#181818" points="1181.33,542.7483,1186.6033,534.4301,1182.0613,537.802,1178.6893,533.26,1181.33,542.7483" style="stroke:#181818;stroke-width:1.0;"/><text fill="#000000" font-family="sans-serif" font-size="13" lengthAdjust="spacing" textLength="134" x="1189.08" y="509.5166">Mount via ConfigMap</text></g><!--link CronJob Container to EFS Mount /output--><g id="link_CronJob Container_EFS Mount /output"><path d="M1132.44,589.9283 C1105.45,603.5083 1070.65,621.2183 1040,637.4383 C1011.21,652.6783 984.2743,667.4533 959.6443,681.1433 " fill="none" id="CronJob Container-to-EFS Mount /output" style="stroke:#181818;stroke-width:1.0;"/><polygon fill="#181818" points="954.4,684.0583,964.2098,683.1821,958.7703,681.6292,960.3232,676.1896,954.4,684.0583" style="stroke:#181818;stroke-width:1.0;"/><text fill="#000000" font-family="sans-serif" font-size="13" lengthAdjust="spacing" textLength="119" x="1041" y="651.0066">Read finalized files</text></g><!--link CronJob Container to S3 Bucket--><g id="link_CronJob Container_S3 Bucket"><path d="M1175.56,589.9183 C1172.77,615.8583 1168.8719,652.0727 1166.0819,678.0027 " fill="none" id="CronJob Container-to-S3 Bucket" style="stroke:#181818;stroke-width:1.0;"/><polygon fill="#181818" points="1165.44,683.9683,1170.3799,675.4479,1165.9749,678.997,1162.4258,674.592,1165.44,683.9683" style="stroke:#181818;stroke-width:1.0;"/><text fill="#000000" font-family="sans-serif" font-size="13" lengthAdjust="spacing" textLength="133" x="1171.05" y="651.0066">Upload finalized files</text></g><!--link Helm Chart: Scheduler Deployment (one per file) to Scheduler PODs (one per file)--><g id="link_Helm Chart: Scheduler Deployment (one per file)_Scheduler PODs (one per file)"><path d="M440.83,271.8683 C416.86,281.3083 392.52,294.4183 374,312.4683 C351.93,333.9683 338.02,365.6133 329.5838,392.2083 C328.5292,395.5327 327.5602,398.7781 326.6715,401.915 C326.4493,402.6992 327.8261,397.6923 327.6138,398.4624 " fill="none" id="Helm Chart: Scheduler Deployment (one per file)-to-Scheduler PODs (one per file)" style="stroke:#181818;stroke-width:1.0;"/><polygon fill="#181818" points="326.0199,404.2469,332.2671,396.6328,327.3482,399.4265,324.5545,394.5076,326.0199,404.2469" style="stroke:#181818;stroke-width:1.0;"/></g><!--link Helm Chart: Processor Deployment (one per file) to Processor PODs (one per file)--><g id="link_Helm Chart: Processor Deployment (one per file)_Processor PODs (one per file)"><path d="M976.33,271.7983 C990.74,282.2283 1005.58,295.9783 1014,312.4683 C1020.445,325.0783 1024.2025,339.3089 1026.2048,353.5988 C1026.7054,357.1712 1027.0963,360.7474 1027.3921,364.3028 C1027.54,366.0806 1027.6641,367.8531 1027.7662,369.6175 C1027.7917,370.0586 1027.5052,364.5072 1027.528,364.9472 " fill="none" id="Helm Chart: Processor Deployment (one per file)-to-Processor PODs (one per file)" style="stroke:#181818;stroke-width:1.0;"/><polygon fill="#181818" points="1027.8387,370.9391,1031.3673,361.7441,1027.5798,365.9458,1023.378,362.1584,1027.8387,370.9391" style="stroke:#181818;stroke-width:1.0;"/></g><!--link Helm Chart: CronJob Scheduler Deployment (one per file) to CronJob Scheduler PODs (one per file)--><g id="link_Helm Chart: CronJob Scheduler Deployment (one per file)_CronJob Scheduler PODs (one per file)"><path d="M1373,271.6783 C1373,284.1733 1373,300.8158 1373,318.8077 C1373,327.8036 1373,337.1369 1373,346.4577 C1373,351.1182 1373,355.7755 1373,360.386 C1373,362.6912 1373,364.9848 1373,367.2611 C1373,368.3993 1373,363.5332 1373,364.6621 " fill="none" id="Helm Chart: CronJob Scheduler Deployment (one per file)-to-CronJob Scheduler PODs (one per file)" style="stroke:#181818;stroke-width:1.0;"/><polygon fill="#181818" points="1373,370.6621,1377,361.6621,1373,365.6621,1369,361.6621,1373,370.6621" style="stroke:#181818;stroke-width:1.0;"/></g><!--SRC=[bLGzRzim4DtrAmxfaWnEXcuP2ZIIZRfD6YD2sw7mG55dcJ552YJbL2tottkHuaZMLwoLv7llthtZEU4amehn7Kk4Ie2f60BCf2vIL0v2PvZ3f80P-2n52VUvYtHEZnQ2S9zZbZaqS1wWvKPaJXlmjJ78dIpWZXuwZ67vFLm6SvWpleNLVN3XULcfXt1M2z-o0iqP_FC0VWUQxuXrcTARQmZv5kDSebbtxrP6SxHMzztvHgklEchYdnlI3PTDxIyeK_2tpBY6ShCbvreXP7IseGvShDkOjuecO3gLZc79ms23O3RxDDq2NCC3Rj2WufIMKB1dCaTxMR1KUeCDxsgTOdsALZV0hkQKrergruFnBO_GA7HemPUvTTLeK6PAntHTAz4isvP6DKGKR_ps8MRs0BXyj5gjuSEjIBRkXgIhfpMXhvLZGbMJFavIDg8FIIRBVmTxmLwEDoAvOndnFTSMwg1Ej90T00CMQi8H2ssIqa8VSj02ySqNuUlbrPCsEzeSwyw5pbsMk-uv_k6OEK7QmrLNLVMeK56_Z708VlZpQgKj6Fra9_2y5aKq2w6O57yH8kOem2aajGFY2TaU0OtHnXx7s_qJ9yRC2VYeeu6G3xGZ4HyJbDLtKIV6UvHY3yjmWn-GnMIowd9SshNZDE57kCbfzPJm7xG_UWcenI_BT_9wRVtLdZ3MtlH5sle-xxDEMfL7sRrJ-ty0]--></g></svg>